<?xml version="1.0" encoding="utf-8"?>
<!-- Generator: Adobe Illustrator 20.1.0, SVG Export Plug-In . SVG Version: 6.00 Build 0)  -->
<svg version="1.1" id="Calque_1" xmlns="http://www.w3.org/2000/svg" xmlns:xlink="http://www.w3.org/1999/xlink" x="0px" y="0px"
	 viewBox="0 0 841.9 595.3" style="enable-background:new 0 0 841.9 595.3;" xml:space="preserve">
<style type="text/css">
	.st0{fill:#D65A16;}
</style>
<g>
	<g>
		<path class="st0" d="M186.1,332.9v17h19.7v13.7h-19.7V389c0,2.8,0.6,4.7,1.7,5.6c1.1,1,3.3,1.5,6.6,1.5h9.8v13.7h-16.4
			c-7.5,0-12.9-1.6-16.1-4.7c-3.2-3.2-4.7-8.5-4.7-16.1v-25.4h-9.5v-13.7h9.5v-17H186.1z"/>
		<path class="st0" d="M252.2,373.3c0-3.6-1.1-6.6-3.2-8.8c-2.1-2.2-4.9-3.3-8.3-3.3c-3.7,0-6.7,1-9,3.1c-2.3,2.1-3.8,5.1-4.3,9
			H252.2z M271.9,379.6v5.5h-44.8c0.5,4.5,2.1,7.9,4.9,10.1c2.8,2.3,6.7,3.4,11.7,3.4c4,0,8.2-0.6,12.4-1.8c4.2-1.2,8.6-3,13-5.4
			v14.8c-4.5,1.7-9.1,3-13.6,3.9c-4.5,0.9-9.1,1.3-13.6,1.3c-10.8,0-19.3-2.8-25.3-8.3c-6-5.5-9-13.2-9-23.2
			c0-9.8,2.9-17.5,8.8-23.1c5.9-5.6,14-8.4,24.4-8.4c9.4,0,16.9,2.8,22.6,8.5C269.1,362.6,271.9,370.2,271.9,379.6"/>
		<path class="st0" d="M332,359.8c2.4-3.7,5.3-6.5,8.6-8.5c3.3-1.9,7-2.9,11-2.9c6.9,0,12.1,2.1,15.7,6.4c3.6,4.2,5.4,10.4,5.4,18.5
			v36.5h-19.2v-31.2c0-0.5,0.1-0.9,0.1-1.4c0-0.5,0-1.2,0-2.1c0-4.2-0.6-7.3-1.9-9.2c-1.3-1.9-3.3-2.9-6-2.9c-3.6,0-6.4,1.5-8.4,4.5
			c-2,3-3,7.3-3.1,13v29.4H315v-31.2c0-6.6-0.6-10.9-1.7-12.8c-1.1-1.9-3.2-2.9-6.1-2.9c-3.7,0-6.5,1.5-8.5,4.5c-2,3-3,7.3-3,12.9
			v29.5h-19.2v-59.9h19.2v8.8c2.3-3.4,5.1-5.9,8.1-7.6c3-1.7,6.4-2.6,10.1-2.6c4.1,0,7.8,1,11,3C328,353.4,330.4,356.2,332,359.8"/>
		<path class="st0" d="M414.3,395.7c4.1,0,7.2-0.9,9.3-2.6c2.1-1.7,3.1-4.4,3.1-7.9c0-3.5-1-6.1-3.1-7.8c-2.1-1.7-5.2-2.6-9.4-2.6
			h-12.1v20.9H414.3z M413.6,360.8c3.2,0,5.7-0.7,7.4-2.1c1.7-1.4,2.5-3.5,2.5-6.3c0-2.7-0.8-4.8-2.5-6.3c-1.7-1.4-4.1-2.2-7.4-2.2
			h-11.4v16.9H413.6z M433.4,367c4.4,1.3,7.8,3.7,10.3,7.1c2.4,3.5,3.6,7.7,3.6,12.7c0,7.7-2.6,13.4-7.8,17.2s-13.1,5.7-23.7,5.7
			h-34.2v-79.8h30.9c11.1,0,19.1,1.7,24.1,5c5,3.3,7.5,8.7,7.5,16.1c0,3.9-0.9,7.2-2.7,9.9C439.5,363.7,436.9,365.7,433.4,367"/>
		<path class="st0" d="M485.1,362.1c-4.2,0-7.5,1.5-9.7,4.6c-2.2,3-3.3,7.4-3.3,13.2c0,5.7,1.1,10.1,3.3,13.2c2.2,3,5.5,4.6,9.7,4.6
			c4.2,0,7.4-1.5,9.6-4.6c2.2-3.1,3.3-7.4,3.3-13.2c0-5.7-1.1-10.1-3.3-13.2C492.4,363.6,489.2,362.1,485.1,362.1 M485.1,348.4
			c10.3,0,18.4,2.8,24.1,8.3c5.8,5.6,8.7,13.3,8.7,23.1c0,9.8-2.9,17.5-8.7,23.1s-13.8,8.3-24.1,8.3c-10.3,0-18.4-2.8-24.2-8.3
			s-8.7-13.3-8.7-23.1c0-9.8,2.9-17.5,8.7-23.1C466.6,351.2,474.7,348.4,485.1,348.4"/>
		<path class="st0" d="M553.2,382.8c-4,0-7,0.7-9,2c-2,1.4-3,3.4-3,6c0,2.4,0.8,4.3,2.4,5.7c1.6,1.4,3.9,2.1,6.8,2.1
			c3.6,0,6.6-1.3,9.1-3.9c2.5-2.6,3.7-5.8,3.7-9.7v-2.2H553.2z M582.4,375.6v34.2h-19.3v-8.9c-2.6,3.6-5.5,6.3-8.7,7.9
			c-3.2,1.7-7.1,2.5-11.7,2.5c-6.2,0-11.2-1.8-15.1-5.4c-3.9-3.6-5.8-8.3-5.8-14.1c0-7,2.4-12.2,7.2-15.5c4.8-3.3,12.4-4.9,22.8-4.9
			h11.3v-1.5c0-3-1.2-5.2-3.6-6.7c-2.4-1.4-6.1-2.1-11.2-2.1c-4.1,0-7.9,0.4-11.4,1.2c-3.5,0.8-6.8,2-9.8,3.7v-14.6
			c4.1-1,8.2-1.8,12.4-2.3c4.1-0.5,8.3-0.8,12.4-0.8c10.8,0,18.6,2.1,23.4,6.4C580,359.1,582.4,366,582.4,375.6"/>
		<path class="st0" d="M632.6,366.2c-1.7-0.8-3.3-1.4-5-1.7s-3.3-0.6-5-0.6c-4.9,0-8.7,1.6-11.4,4.7c-2.7,3.2-4,7.7-4,13.6v27.6
			h-19.1v-59.9h19.1v9.8c2.5-3.9,5.3-6.8,8.5-8.6c3.2-1.8,7-2.7,11.5-2.7c0.6,0,1.3,0,2.1,0.1c0.7,0.1,1.8,0.2,3.3,0.3L632.6,366.2z
			"/>
		<path class="st0" d="M664.8,397.4c4.1,0,7.2-1.5,9.4-4.5c2.2-3,3.2-7.3,3.2-13c0-5.7-1.1-10.1-3.2-13c-2.2-3-5.3-4.5-9.4-4.5
			c-4.1,0-7.2,1.5-9.3,4.5c-2.2,3-3.2,7.3-3.2,13c0,5.7,1.1,10.1,3.2,13C657.6,395.9,660.7,397.4,664.8,397.4 M677.4,358.6v-32.1
			h19.2v83.2h-19.2v-8.7c-2.6,3.5-5.5,6.1-8.7,7.8c-3.2,1.6-6.8,2.5-11,2.5c-7.4,0-13.4-2.9-18.2-8.8c-4.7-5.9-7.1-13.4-7.1-22.6
			c0-9.2,2.4-16.8,7.1-22.6c4.7-5.9,10.8-8.8,18.2-8.8c4.1,0,7.8,0.8,11,2.5C671.9,352.6,674.8,355.1,677.4,358.6"/>
		<path class="st0" d="M428.2,307.3c-3.2,0-6.3-0.8-9.1-2.4L370.8,277c-5.6-3.2-9.1-9.3-9.1-15.7v-55.8c0-6.5,3.5-12.5,9.1-15.7
			l48.4-27.9c5.5-3.2,12.7-3.2,18.2,0l48.4,27.9c5.6,3.2,9.1,9.3,9.1,15.7v55.8c0,6.5-3.5,12.5-9.1,15.7l-48.4,27.9
			C434.5,306.5,431.4,307.3,428.2,307.3 M428.2,168.7c-1.5,0-3,0.4-4.4,1.2l-48.4,27.9c-2.7,1.5-4.4,4.4-4.4,7.5v55.8
			c0,3.1,1.7,6,4.4,7.5l48.4,27.9c2.6,1.5,6.1,1.5,8.7,0l48.4-27.9c2.7-1.5,4.4-4.4,4.4-7.5v-55.8c0-3.1-1.7-6-4.4-7.5l-48.4-27.9
			C431.2,169.1,429.7,168.7,428.2,168.7"/>
		<path class="st0" d="M433.2,227.7c-4.2-2.5-7.6-5.9-7.6-11c0-5.1,2.8-9.8,12.4-16.7c9.6-6.9,20-8.3,20-8.3
			c-36.5,3.2-45.2,33.2-46.5,36.5c-1.2,3.3-0.1,4.5,1,5c1.1,0.5,8.1,4,13.5,9.8c5.3,5.9,8,17.2,8,22.9c0,5.8-3.1,15.6-10.5,23.3
			c-0.3,0.4-0.7,0.6-1,1l1.6,0.9c2.4,1.4,5.5,1.4,7.9,0l13.1-7.5c2.8-5.3,5.3-12.9,5.2-24.3C450.3,241.7,437.4,230.2,433.2,227.7"/>
		<path class="st0" d="M425.3,255.4c-2.4-5.1-7.7-12.4-15.7-16.3c-1.9-0.6-4.4-2.3-5.1,1.9c-0.7,4.2-2.6,16.7-3.4,27.6
			c-0.2,3-0.4,6.1-0.5,9l17.7,10.2c1.6-1.5,3.1-3.3,4.4-5.4C428.8,272.2,427.7,260.5,425.3,255.4"/>
		<path class="st0" d="M437,194.2c-2.2,0.8-6.3,2.9-14.1,0.7c-7.8-2.3-14.7,0.6-19.8,3.3c-5.1,2.7-7.9,8.5-8.7,12.8
			c-0.8,4.3-4.6,7.6-7.7,8.7c2.8-0.8,8.4,1.1,10.4,3.8c2,2.7,4.1,4.4,6.8,6.1c2.7,1.7,3.1-1,3.6-2.7c0.5-1.6,1.1-7.7,12-19.5
			c0,0,0,0-0.1,0c-1.8,0-3.3-1.5-3.3-3.3c0-1.8,1.5-3.3,3.3-3.3c1.8,0,3.2,1.4,3.3,3.2c12.3-11.7,26.5-12.4,35.4-12.4
			C458.1,191.8,447.9,190.1,437,194.2"/>
	</g>
</g>
</svg>
