<?xml version="1.0" encoding="UTF-8" standalone="no"?>
<svg
   xmlns:dc="http://purl.org/dc/elements/1.1/"
   xmlns:cc="http://creativecommons.org/ns#"
   xmlns:rdf="http://www.w3.org/1999/02/22-rdf-syntax-ns#"
   xmlns:svg="http://www.w3.org/2000/svg"
   xmlns="http://www.w3.org/2000/svg"
   xmlns:sodipodi="http://sodipodi.sourceforge.net/DTD/sodipodi-0.dtd"
   xmlns:inkscape="http://www.inkscape.org/namespaces/inkscape"
   version="1.1"
   id="Calque_1"
   x="0px"
   y="0px"
   viewBox="0 0 159.99999 160.00001"
   xml:space="preserve"
   sodipodi:docname="temboard-logo.svg"
   width="160"
   height="160"
   inkscape:version="1.0.2 (e86c870879, 2021-01-15)"><metadata
   id="metadata37"><rdf:RDF><cc:Work
       rdf:about=""><dc:format>image/svg+xml</dc:format><dc:type
         rdf:resource="http://purl.org/dc/dcmitype/StillImage" /><dc:title></dc:title></cc:Work></rdf:RDF></metadata><defs
   id="defs35">
	</defs><sodipodi:namedview
   pagecolor="#ffffff"
   bordercolor="#666666"
   borderopacity="1"
   objecttolerance="10"
   gridtolerance="10"
   guidetolerance="10"
   inkscape:pageopacity="0"
   inkscape:pageshadow="2"
   inkscape:window-width="2560"
   inkscape:window-height="1409"
   id="namedview33"
   showgrid="false"
   fit-margin-top="5"
   fit-margin-right="5"
   fit-margin-bottom="5"
   fit-margin-left="5"
   inkscape:zoom="4.7892735"
   inkscape:cx="-4.8414863"
   inkscape:cy="118.15811"
   inkscape:window-x="0"
   inkscape:window-y="31"
   inkscape:window-maximized="1"
   inkscape:current-layer="Calque_1"
   inkscape:document-rotation="0" />
<style
   type="text/css"
   id="style2">
	.st0{fill:#D65A16;}
</style>
<path
   d="m 79.904905,8.9764104 c -1.647146,0 -3.294292,0.4392389 -4.831628,1.3177166 L 21.925374,40.931038 c -2.964863,1.647146 -4.831628,4.831628 -4.831628,8.235729 v 61.273823 c 0,3.4041 1.866765,6.58858 4.831628,8.23573 l 53.147903,30.63691 c 2.855053,1.64715 6.698393,1.64715 9.553446,0 l 53.147907,-30.63691 c 2.96486,-1.64715 4.83162,-4.83163 4.83162,-8.23573 V 49.166767 c 0,-3.404101 -1.86676,-6.588583 -4.83162,-8.235729 L 84.626723,10.294127 C 83.199196,9.4156493 81.552051,8.9764104 79.904905,8.9764104"
   id="path21"
   style="fill:#ffffff;stroke-width:1.0981" /><path
   class="st0"
   d="m 79.9,153.9 c -3.2,0 -6.3,-0.8 -9.1,-2.4 L 22.5,123.6 c -5.6,-3.2 -9.1,-9.3 -9.1,-15.7 V 52.1 c 0,-6.5 3.5,-12.5 9.1,-15.7 L 70.9,8.5 c 5.5,-3.2 12.7,-3.2 18.2,0 l 48.4,27.9 c 5.6,3.2 9.1,9.3 9.1,15.7 v 55.8 c 0,6.5 -3.5,12.5 -9.1,15.7 l -48.4,27.9 c -2.9,1.6 -6,2.4 -9.2,2.4 m 0,-138.6 c -1.5,0 -3,0.4 -4.4,1.2 L 27.1,44.4 c -2.7,1.5 -4.4,4.4 -4.4,7.5 v 55.8 c 0,3.1 1.7,6 4.4,7.5 l 48.4,27.9 c 2.6,1.5 6.1,1.5 8.7,0 l 48.4,-27.9 c 2.7,-1.5 4.4,-4.4 4.4,-7.5 V 51.9 c 0,-3.1 -1.7,-6 -4.4,-7.5 L 84.2,16.5 c -1.3,-0.8 -2.8,-1.2 -4.3,-1.2"
   id="path20" /><path
   class="st0"
   d="m 84.9,74.3 c -4.2,-2.5 -7.6,-5.9 -7.6,-11 0,-5.1 2.8,-9.8 12.4,-16.7 9.6,-6.9 20,-8.3 20,-8.3 -36.5,3.2 -45.2,33.2 -46.5,36.5 -1.2,3.3 -0.1,4.5 1,5 1.1,0.5 8.1,4 13.5,9.8 5.3,5.9 8,17.2 8,22.9 0,5.8 -3.1,15.6 -10.5,23.3 -0.3,0.4 -0.7,0.6 -1,1 l 1.6,0.9 c 2.4,1.4 5.5,1.4 7.9,0 l 13.1,-7.5 c 2.8,-5.3 5.3,-12.9 5.2,-24.3 C 102,88.3 89.1,76.8 84.9,74.3"
   id="path22" /><path
   class="st0"
   d="M 77,102 C 74.6,96.9 69.3,89.6 61.3,85.7 c -1.9,-0.6 -4.4,-2.3 -5.1,1.9 -0.7,4.2 -2.6,16.7 -3.4,27.6 -0.2,3 -0.4,6.1 -0.5,9 L 70,134.4 c 1.6,-1.5 3.1,-3.3 4.4,-5.4 6.1,-10.2 5,-21.9 2.6,-27"
   id="path24" /><path
   class="st0"
   d="m 88.7,40.8 c -2.2,0.8 -6.3,2.9 -14.1,0.7 -7.8,-2.3 -14.7,0.6 -19.8,3.3 -5.1,2.7 -7.9,8.5 -8.7,12.8 -0.8,4.3 -4.6,7.6 -7.7,8.7 2.8,-0.8 8.4,1.1 10.4,3.8 2,2.7 4.1,4.4 6.8,6.1 2.7,1.7 3.1,-1 3.6,-2.7 0.5,-1.6 1.1,-7.7 12,-19.5 0,0 0,0 -0.1,0 -1.8,0 -3.3,-1.5 -3.3,-3.3 0,-1.8 1.5,-3.3 3.3,-3.3 1.8,0 3.2,1.4 3.3,3.2 12.3,-11.7 26.5,-12.4 35.4,-12.4 0,0.2 -10.2,-1.5 -21.1,2.6"
   id="path26" />
</svg>
